<svg width="1262" height="908" viewBox="0 0 1262 908" fill="none" xmlns="http://www.w3.org/2000/svg">
<path opacity="0.94" d="M684.893 738.522C714.511 738.522 738.522 714.512 738.522 684.893C738.522 655.274 714.511 631.263 684.893 631.263C655.274 631.263 631.263 655.274 631.263 684.893C631.263 714.512 655.274 738.522 684.893 738.522Z" stroke="white" stroke-miterlimit="10"/>
<path opacity="0.88" d="M684.893 775.658C735.021 775.658 775.658 735.021 775.658 684.893C775.658 634.764 735.021 594.127 684.893 594.127C634.765 594.127 594.127 634.764 594.127 684.893C594.127 735.021 634.765 775.658 684.893 775.658Z" stroke="white" stroke-miterlimit="10"/>
<path opacity="0.81" d="M684.893 816.327C757.482 816.327 816.326 757.482 816.326 684.893C816.326 612.304 757.482 553.459 684.893 553.459C612.304 553.459 553.459 612.304 553.459 684.893C553.459 757.482 612.304 816.327 684.893 816.327Z" stroke="white" stroke-miterlimit="10"/>
<path opacity="0.75" d="M684.893 858.056C780.528 858.056 858.056 780.528 858.056 684.893C858.056 589.258 780.528 511.73 684.893 511.73C589.257 511.73 511.729 589.258 511.729 684.893C511.729 780.528 589.257 858.056 684.893 858.056Z" stroke="white" stroke-miterlimit="10"/>
<path opacity="0.69" d="M684.893 900.229C803.82 900.229 900.229 803.82 900.229 684.893C900.229 565.966 803.82 469.556 684.893 469.556C565.966 469.556 469.557 565.966 469.557 684.893C469.557 803.82 565.966 900.229 684.893 900.229Z" stroke="white" stroke-miterlimit="10"/>
<path opacity="0.63" d="M684.893 942.628C827.236 942.628 942.628 827.236 942.628 684.893C942.628 542.55 827.236 427.158 684.893 427.158C542.55 427.158 427.158 542.55 427.158 684.893C427.158 827.236 542.55 942.628 684.893 942.628Z" stroke="white" stroke-miterlimit="10"/>
<path opacity="0.56" d="M684.893 985.158C850.725 985.158 985.159 850.725 985.159 684.893C985.159 519.061 850.725 384.627 684.893 384.627C519.061 384.627 384.627 519.061 384.627 684.893C384.627 850.725 519.061 985.158 684.893 985.158Z" stroke="white" stroke-miterlimit="10"/>
<path opacity="0.5" d="M684.893 1027.77C874.259 1027.77 1027.77 874.259 1027.77 684.893C1027.77 495.526 874.259 342.014 684.893 342.014C495.526 342.014 342.014 495.526 342.014 684.893C342.014 874.259 495.526 1027.77 684.893 1027.77Z" stroke="white" stroke-miterlimit="10"/>
<path opacity="0.44" d="M684.893 1070.44C897.825 1070.44 1070.44 897.825 1070.44 684.893C1070.44 471.961 897.825 299.345 684.893 299.345C471.961 299.345 299.345 471.961 299.345 684.893C299.345 897.825 471.961 1070.44 684.893 1070.44Z" stroke="white" stroke-miterlimit="10"/>
<path opacity="0.38" d="M684.893 1113.14C921.409 1113.14 1113.14 921.41 1113.14 684.893C1113.14 448.376 921.409 256.641 684.893 256.641C448.376 256.641 256.641 448.376 256.641 684.893C256.641 921.41 448.376 1113.14 684.893 1113.14Z" stroke="white" stroke-miterlimit="10"/>
<path opacity="0.31" d="M684.893 1155.88C945.011 1155.88 1155.88 945.011 1155.88 684.893C1155.88 424.775 945.011 213.907 684.893 213.907C424.775 213.907 213.907 424.775 213.907 684.893C213.907 945.011 424.775 1155.88 684.893 1155.88Z" stroke="white" stroke-miterlimit="10"/>
<path opacity="0.25" d="M684.893 1198.63C968.625 1198.63 1198.63 968.624 1198.63 684.893C1198.63 401.161 968.625 171.151 684.893 171.151C401.161 171.151 171.151 401.161 171.151 684.893C171.151 968.624 401.161 1198.63 684.893 1198.63Z" stroke="white" stroke-miterlimit="10"/>
<path opacity="0.19" d="M684.893 1241.41C992.246 1241.41 1241.41 992.246 1241.41 684.893C1241.41 377.539 992.246 128.38 684.893 128.38C377.54 128.38 128.38 377.539 128.38 684.893C128.38 992.246 377.54 1241.41 684.893 1241.41Z" stroke="white" stroke-miterlimit="10"/>
<path opacity="0.13" d="M684.893 1284.19C1015.88 1284.19 1284.19 1015.88 1284.19 684.893C1284.19 353.91 1015.88 85.5962 684.893 85.5962C353.91 85.5962 85.5962 353.91 85.5962 684.893C85.5962 1015.88 353.91 1284.19 684.893 1284.19Z" stroke="white" stroke-miterlimit="10"/>
<path opacity="0.06" d="M684.893 1326.98C1039.51 1326.98 1326.98 1039.51 1326.98 684.893C1326.98 330.277 1039.51 42.8035 684.893 42.8035C330.277 42.8035 42.8037 330.277 42.8037 684.893C42.8037 1039.51 330.277 1326.98 684.893 1326.98Z" stroke="white" stroke-miterlimit="10"/>
</svg>
