<svg width="25" height="25" viewBox="0 0 25 25" fill="none" xmlns="http://www.w3.org/2000/svg">
<path d="M17.6111 18.4456L24 12.04M24 12.04L17.6111 5.63443M24 12.04H8.66667M12.5 18.4456C12.5 18.8243 12.5 19.0136 12.4859 19.1776C12.34 20.8823 11.0879 22.2849 9.4142 22.6185C9.2532 22.6506 9.06536 22.6716 8.69011 22.7134L7.38498 22.8588C5.42428 23.0772 4.44388 23.1863 3.66501 22.9365C2.62652 22.6033 1.7787 21.8425 1.33373 20.8445C1 20.0959 1 19.107 1 17.129V6.95102C1 4.97307 1 3.9841 1.33373 3.23556C1.7787 2.23752 2.62652 1.47669 3.66501 1.14351C4.44388 0.89362 5.42425 1.00284 7.38498 1.22125L8.69011 1.36665C9.06549 1.40847 9.25318 1.42938 9.4142 1.46147C11.0879 1.79512 12.34 3.1978 12.4859 4.90241C12.5 5.06642 12.5 5.25576 12.5 5.63443" stroke="#939393" stroke-width="2" stroke-linecap="round" stroke-linejoin="round"/>
</svg>
